
  <svg
    version="1.1"
    viewBox="0 0 3663 3663"
    width="256px"
    height="256px"
    
    xml:space="preserve" xmlns="http://www.w3.org/2000/svg" xmlns:xlink="http://www.w3.org/1999/xlink"
  >
    <defs>
      <rect id="rect-0" width="100" height="100" fill="#000000"/>
      <path
        id="empty-0"
        d="M0,28.6v42.9C0,87.3,12.8,100,28.6,100h42.9c15.9,0,28.6-12.8,28.6-28.6V28.6C100,12.7,87.2,0,71.4,0H28.6 C12.8,0,0,12.8,0,28.6z"
        fill="#000000"
      />
      <path id="b-0" d="M0,0 L66,0 C84.7776815,-3.44940413e-15 100,15.2223185 100,34 L100,66 C100,84.7776815 84.7776815,100 66,100 L0,100 L0,0 Z" transform="rotate(-90 50 50)" fill="#000000"/>
      <path id="r-0" d="M0,0 L66,0 C84.7776815,-3.44940413e-15 100,15.2223185 100,34 L100,66 C100,84.7776815 84.7776815,100 66,100 L0,100 L0,0 Z" transform="rotate(-180 50 50)" fill="#000000"/>
      <path id="l-0" d="M0,0 L66,0 C84.7776815,-3.44940413e-15 100,15.2223185 100,34 L100,66 C100,84.7776815 84.7776815,100 66,100 L0,100 L0,0 Z" fill="#000000"/>
      <path id="t-0" d="M0,0 L66,0 C84.7776815,-3.44940413e-15 100,15.2223185 100,34 L100,66 C100,84.7776815 84.7776815,100 66,100 L0,100 L0,0 Z" transform="rotate(90 50 50)" fill="#000000"/>
      <path id="l-0" d="M0,0 L100,0 L100,66 C100,84.7776815 84.7776815,100 66,100 L0,100 L0,0 Z" transform="rotate(-90 50 50)" fill="#000000"/>
      <path id="lt-0" d="M0,0 L100,0 L100,66 C100,84.7776815 84.7776815,100 66,100 L0,100 L0,0 Z" fill="#000000"/>
      <path id="lb-0" d="M0,0 L100,0 L100,66 C100,84.7776815 84.7776815,100 66,100 L0,100 L0,0 Z" transform="rotate(-90 50 50)" fill="#000000"/>
      <path id="rb-0" d="M0,0 L100,0 L100,66 C100,84.7776815 84.7776815,100 66,100 L0,100 L0,0 Z" transform="rotate(-180 50 50)" fill="#000000"/>
      <path id="rt-0" d="M0,0 L100,0 L100,66 C100,84.7776815 84.7776815,100 66,100 L0,100 L0,0 Z" transform="rotate(90 50 50)" fill="#000000"/>
      <path
        id="n_lt-0"
        d="M30.5,2V0H0v30.5h2C2,14.7,14.8,2,30.5,2z"
        fill="#000000"
      />
      <path
        id="n_lb-0"
        d="M2,69.5H0V100h30.5v-2C14.7,98,2,85.2,2,69.5z"
        fill="#000000"
      />
      <path
        id="n_rt-0"
        d="M98,30.5h2V0H69.5v2C85.3,2,98,14.8,98,30.5z"
        fill="#000000"
      />
      <path id="n_rb-0"
        d="M69.5,98v2H100V69.5h-2C98,85.3,85.2,98,69.5,98z"
        fill="#000000"
      />
      <path
        id="point-0"
        fill="#000000"
        d="M600.001786,457.329333 L600.001786,242.658167 C600.001786,147.372368 587.039517,124.122784 581.464617,118.535383 C575.877216,112.960483 552.627632,99.9982143 457.329333,99.9982143 L242.670667,99.9982143 C147.372368,99.9982143 124.122784,112.960483 118.547883,118.535383 C112.972983,124.122784 99.9982143,147.372368 99.9982143,242.658167 L99.9982143,457.329333 C99.9982143,552.627632 112.972983,575.877216 118.547883,581.464617 C124.122784,587.027017 147.372368,600.001786 242.670667,600.001786 L457.329333,600.001786 C552.627632,600.001786 575.877216,587.027017 581.464617,581.464617 C587.039517,575.877216 600.001786,552.627632 600.001786,457.329333 Z M457.329333,0 C653.338333,0 700,46.6616668 700,242.658167 C700,438.667167 700,261.332833 700,457.329333 C700,653.338333 653.338333,700 457.329333,700 C261.332833,700 438.667167,700 242.670667,700 C46.6616668,700 0,653.338333 0,457.329333 C0,261.332833 0,352.118712 0,242.658167 C0,46.6616668 46.6616668,0 242.670667,0 C438.667167,0 261.332833,0 457.329333,0 Z M395.996667,200 C480.004166,200 500,220.008332 500,303.990835 C500,387.998334 500,312.001666 500,395.996667 C500,479.991668 480.004166,500 395.996667,500 C312.001666,500 387.998334,500 304.003333,500 C220.008332,500 200,479.991668 200,395.996667 C200,312.001666 200,350.906061 200,303.990835 C200,220.008332 220.008332,200 304.003333,200 C387.998334,200 312.001666,200 395.996667,200 Z"
      />
      <g id="vk_logo-0">
        <path
          fill="#07f"
          d="M83.3334 363.333C83.3334 231.34 83.3334 165.343 124.338 124.338C165.343 83.3333 231.34              83.3333 363.333 83.3333H386.667C518.66 83.3333 584.657 83.3333 625.662 124.338C666.667 165.343              666.667 231.34 666.667 363.333V386.667C666.667 518.66 666.667 584.657 625.662 625.662C584.657              666.667 518.66 666.667 386.667 666.667H363.333C231.34 666.667 165.343 666.667 124.338 625.662C83.3334              584.657 83.3334 518.66 83.3334 386.667V363.333Z"
        />
        <path
          fill="#FFF"
          d="M394.907 508.681C263.293 508.681 183.442 417.365 180.313 265.625H246.972C249.05 377.09              299.763 424.323 338.638 434.036V265.625H402.519V361.82C440.016 357.664 479.264 313.909              492.456 265.625H555.333C545.27 325 502.543 368.754 472.353 386.803C502.566 401.395 551.177              439.593 569.926 508.681H500.815C486.222 462.498 450.476 426.728 402.542 421.872V508.681H394.907Z"
        />
      </g>
      <clipPath id="logo-mask-0">
        <rect x="0" y="0" width="750" height="750" />
      </clipPath>
    </defs>

    
      <rect
        x="0"
        width="3663"
        height="3663"
        rx="516"
        fill="#FFFFFF00"
      />

    <g transform="translate(300.48046875, 300.48046875) scale(0.84375)">
      <g transform="translate(970,0)"><use xlink:href="#empty-0"/></g>
<g transform="translate(1164,0)"><use xlink:href="#b-0"/></g>
<g transform="translate(1358,0)"><use xlink:href="#b-0"/></g>
<g transform="translate(1746,0)"><use xlink:href="#r-0"/></g>
<g transform="translate(1843,0)"><use xlink:href="#lb-0"/></g>
<g transform="translate(2522,0)"><use xlink:href="#empty-0"/></g>
<g transform="translate(873,97)"><use xlink:href="#empty-0"/></g>
<g transform="translate(1164,97)"><use xlink:href="#rect-0"/></g>
<g transform="translate(1358,97)"><use xlink:href="#rt-0"/></g>
<g transform="translate(1455,97)"><use xlink:href="#rect-0"/></g>
<g transform="translate(1552,97)"><use xlink:href="#l-0"/></g>
<g transform="translate(1843,97)"><use xlink:href="#rt-0"/></g>
<g transform="translate(1940,97)"><use xlink:href="#lb-0"/></g>
<g transform="translate(2134,97)"><use xlink:href="#r-0"/></g>
<g transform="translate(2231,97)"><use xlink:href="#rect-0"/></g>
<g transform="translate(2328,97)"><use xlink:href="#rect-0"/></g>
<g transform="translate(2425,97)"><use xlink:href="#lb-0"/></g>
<g transform="translate(776,194)"><use xlink:href="#b-0"/></g>
<g transform="translate(1164,194)"><use xlink:href="#rect-0"/></g>
<g transform="translate(1649,194)"><use xlink:href="#r-0"/></g>
<g transform="translate(1746,194)"><use xlink:href="#l-0"/></g>
<g transform="translate(1940,194)"><use xlink:href="#rt-0"/></g>
<g transform="translate(2037,194)"><use xlink:href="#l-0"/></g>
<g transform="translate(2425,194)"><use xlink:href="#rt-0"/></g>
<g transform="translate(2522,194)"><use xlink:href="#rect-0"/></g>
<g transform="translate(2619,194)"><use xlink:href="#l-0"/></g>
<g transform="translate(776,291)"><use xlink:href="#t-0"/></g>
<g transform="translate(873,291)"><use xlink:href="#n_rb-0"/></g>
<g transform="translate(970,291)"><use xlink:href="#b-0"/></g>
<g transform="translate(1164,291)"><use xlink:href="#rt-0"/></g>
<g transform="translate(1261,291)"><use xlink:href="#rect-0"/></g>
<g transform="translate(1358,291)"><use xlink:href="#rect-0"/></g>
<g transform="translate(1455,291)"><use xlink:href="#l-0"/></g>
<g transform="translate(1843,291)"><use xlink:href="#empty-0"/></g>
<g transform="translate(2716,291)"><use xlink:href="#empty-0"/></g>
<g transform="translate(873,388)"><use xlink:href="#r-0"/></g>
<g transform="translate(970,388)"><use xlink:href="#rect-0"/></g>
<g transform="translate(1067,388)"><use xlink:href="#l-0"/></g>
<g transform="translate(1649,388)"><use xlink:href="#n_rb-0"/></g>
<g transform="translate(1746,388)"><use xlink:href="#b-0"/></g>
<g transform="translate(2037,388)"><use xlink:href="#empty-0"/></g>
<g transform="translate(2425,388)"><use xlink:href="#rb-0"/></g>
<g transform="translate(2522,388)"><use xlink:href="#lb-0"/></g>
<g transform="translate(970,485)"><use xlink:href="#rect-0"/></g>
<g transform="translate(1455,485)"><use xlink:href="#empty-0"/></g>
<g transform="translate(1649,485)"><use xlink:href="#r-0"/></g>
<g transform="translate(1746,485)"><use xlink:href="#rect-0"/></g>
<g transform="translate(2231,485)"><use xlink:href="#empty-0"/></g>
<g transform="translate(2425,485)"><use xlink:href="#rt-0"/></g>
<g transform="translate(2522,485)"><use xlink:href="#rect-0"/></g>
<g transform="translate(776,582)"><use xlink:href="#empty-0"/></g>
<g transform="translate(970,582)"><use xlink:href="#rect-0"/></g>
<g transform="translate(1164,582)"><use xlink:href="#empty-0"/></g>
<g transform="translate(1358,582)"><use xlink:href="#empty-0"/></g>
<g transform="translate(1552,582)"><use xlink:href="#b-0"/></g>
<g transform="translate(1746,582)"><use xlink:href="#t-0"/></g>
<g transform="translate(1940,582)"><use xlink:href="#b-0"/></g>
<g transform="translate(2134,582)"><use xlink:href="#empty-0"/></g>
<g transform="translate(2328,582)"><use xlink:href="#empty-0"/></g>
<g transform="translate(2522,582)"><use xlink:href="#rect-0"/></g>
<g transform="translate(2619,582)"><use xlink:href="#n_rb-0"/></g>
<g transform="translate(2716,582)"><use xlink:href="#b-0"/></g>
<g transform="translate(970,679)"><use xlink:href="#rt-0"/></g>
<g transform="translate(1067,679)"><use xlink:href="#lb-0"/></g>
<g transform="translate(1164,679)"><use xlink:href="#n_rb-0"/></g>
<g transform="translate(1261,679)"><use xlink:href="#b-0"/></g>
<g transform="translate(1552,679)"><use xlink:href="#t-0"/></g>
<g transform="translate(1843,679)"><use xlink:href="#n_rb-0"/></g>
<g transform="translate(1940,679)"><use xlink:href="#rect-0"/></g>
<g transform="translate(2037,679)"><use xlink:href="#l-0"/></g>
<g transform="translate(2231,679)"><use xlink:href="#b-0"/></g>
<g transform="translate(2425,679)"><use xlink:href="#n_rb-0"/></g>
<g transform="translate(2522,679)"><use xlink:href="#rect-0"/></g>
<g transform="translate(2619,679)"><use xlink:href="#rect-0"/></g>
<g transform="translate(2716,679)"><use xlink:href="#rect-0"/></g>
<g transform="translate(291,776)"><use xlink:href="#r-0"/></g>
<g transform="translate(388,776)"><use xlink:href="#l-0"/></g>
<g transform="translate(582,776)"><use xlink:href="#r-0"/></g>
<g transform="translate(679,776)"><use xlink:href="#l-0"/></g>
<g transform="translate(1067,776)"><use xlink:href="#rect-0"/></g>
<g transform="translate(1164,776)"><use xlink:href="#rect-0"/></g>
<g transform="translate(1261,776)"><use xlink:href="#rect-0"/></g>
<g transform="translate(1358,776)"><use xlink:href="#rect-0"/></g>
<g transform="translate(1455,776)"><use xlink:href="#l-0"/></g>
<g transform="translate(1649,776)"><use xlink:href="#empty-0"/></g>
<g transform="translate(1843,776)"><use xlink:href="#r-0"/></g>
<g transform="translate(1940,776)"><use xlink:href="#lt-0"/></g>
<g transform="translate(2231,776)"><use xlink:href="#rt-0"/></g>
<g transform="translate(2328,776)"><use xlink:href="#rect-0"/></g>
<g transform="translate(2425,776)"><use xlink:href="#rect-0"/></g>
<g transform="translate(2522,776)"><use xlink:href="#rect-0"/></g>
<g transform="translate(2716,776)"><use xlink:href="#rect-0"/></g>
<g transform="translate(3104,776)"><use xlink:href="#n_rb-0"/></g>
<g transform="translate(3201,776)"><use xlink:href="#rb-0"/></g>
<g transform="translate(3298,776)"><use xlink:href="#l-0"/></g>
<g transform="translate(0,873)"><use xlink:href="#rb-0"/></g>
<g transform="translate(97,873)"><use xlink:href="#rect-0"/></g>
<g transform="translate(194,873)"><use xlink:href="#lb-0"/></g>
<g transform="translate(388,873)"><use xlink:href="#n_rb-0"/></g>
<g transform="translate(485,873)"><use xlink:href="#b-0"/></g>
<g transform="translate(776,873)"><use xlink:href="#empty-0"/></g>
<g transform="translate(1067,873)"><use xlink:href="#t-0"/></g>
<g transform="translate(1358,873)"><use xlink:href="#t-0"/></g>
<g transform="translate(2037,873)"><use xlink:href="#r-0"/></g>
<g transform="translate(2134,873)"><use xlink:href="#lb-0"/></g>
<g transform="translate(2425,873)"><use xlink:href="#rect-0"/></g>
<g transform="translate(2522,873)"><use xlink:href="#lt-0"/></g>
<g transform="translate(2619,873)"><use xlink:href="#n_rb-0"/></g>
<g transform="translate(2716,873)"><use xlink:href="#rect-0"/></g>
<g transform="translate(3007,873)"><use xlink:href="#r-0"/></g>
<g transform="translate(3104,873)"><use xlink:href="#rect-0"/></g>
<g transform="translate(3201,873)"><use xlink:href="#lt-0"/></g>
<g transform="translate(3395,873)"><use xlink:href="#b-0"/></g>
<g transform="translate(0,970)"><use xlink:href="#t-0"/></g>
<g transform="translate(194,970)"><use xlink:href="#rect-0"/></g>
<g transform="translate(388,970)"><use xlink:href="#rb-0"/></g>
<g transform="translate(485,970)"><use xlink:href="#rect-0"/></g>
<g transform="translate(582,970)"><use xlink:href="#l-0"/></g>
<g transform="translate(776,970)"><use xlink:href="#n_rb-0"/></g>
<g transform="translate(873,970)"><use xlink:href="#b-0"/></g>
<g transform="translate(1455,970)"><use xlink:href="#n_rb-0"/></g>
<g transform="translate(1552,970)"><use xlink:href="#rb-0"/></g>
<g transform="translate(1649,970)"><use xlink:href="#rect-0"/></g>
<g transform="translate(1746,970)"><use xlink:href="#l-0"/></g>
<g transform="translate(2134,970)"><use xlink:href="#rect-0"/></g>
<g transform="translate(2425,970)"><use xlink:href="#t-0"/></g>
<g transform="translate(2619,970)"><use xlink:href="#r-0"/></g>
<g transform="translate(2716,970)"><use xlink:href="#rect-0"/></g>
<g transform="translate(2813,970)"><use xlink:href="#rect-0"/></g>
<g transform="translate(2910,970)"><use xlink:href="#lb-0"/></g>
<g transform="translate(3395,970)"><use xlink:href="#rt-0"/></g>
<g transform="translate(3492,970)"><use xlink:href="#l-0"/></g>
<g transform="translate(97,1067)"><use xlink:href="#rb-0"/></g>
<g transform="translate(194,1067)"><use xlink:href="#lt-0"/></g>
<g transform="translate(291,1067)"><use xlink:href="#n_rb-0"/></g>
<g transform="translate(388,1067)"><use xlink:href="#rect-0"/></g>
<g transform="translate(485,1067)"><use xlink:href="#rect-0"/></g>
<g transform="translate(679,1067)"><use xlink:href="#r-0"/></g>
<g transform="translate(776,1067)"><use xlink:href="#rect-0"/></g>
<g transform="translate(873,1067)"><use xlink:href="#rect-0"/></g>
<g transform="translate(1455,1067)"><use xlink:href="#rb-0"/></g>
<g transform="translate(1552,1067)"><use xlink:href="#lt-0"/></g>
<g transform="translate(1843,1067)"><use xlink:href="#n_rb-0"/></g>
<g transform="translate(1940,1067)"><use xlink:href="#b-0"/></g>
<g transform="translate(2134,1067)"><use xlink:href="#rect-0"/></g>
<g transform="translate(2231,1067)"><use xlink:href="#lb-0"/></g>
<g transform="translate(2522,1067)"><use xlink:href="#empty-0"/></g>
<g transform="translate(2716,1067)"><use xlink:href="#rt-0"/></g>
<g transform="translate(2813,1067)"><use xlink:href="#rect-0"/></g>
<g transform="translate(2910,1067)"><use xlink:href="#rect-0"/></g>
<g transform="translate(3298,1067)"><use xlink:href="#empty-0"/></g>
<g transform="translate(0,1164)"><use xlink:href="#n_rb-0"/></g>
<g transform="translate(97,1164)"><use xlink:href="#rect-0"/></g>
<g transform="translate(291,1164)"><use xlink:href="#r-0"/></g>
<g transform="translate(388,1164)"><use xlink:href="#rect-0"/></g>
<g transform="translate(485,1164)"><use xlink:href="#rect-0"/></g>
<g transform="translate(582,1164)"><use xlink:href="#l-0"/></g>
<g transform="translate(873,1164)"><use xlink:href="#t-0"/></g>
<g transform="translate(1455,1164)"><use xlink:href="#t-0"/></g>
<g transform="translate(1649,1164)"><use xlink:href="#empty-0"/></g>
<g transform="translate(1746,1164)"><use xlink:href="#n_rb-0"/></g>
<g transform="translate(1843,1164)"><use xlink:href="#rb-0"/></g>
<g transform="translate(1940,1164)"><use xlink:href="#rect-0"/></g>
<g transform="translate(2037,1164)"><use xlink:href="#n_rb-0"/></g>
<g transform="translate(2134,1164)"><use xlink:href="#rect-0"/></g>
<g transform="translate(2231,1164)"><use xlink:href="#lt-0"/></g>
<g transform="translate(2522,1164)"><use xlink:href="#n_rb-0"/></g>
<g transform="translate(2619,1164)"><use xlink:href="#b-0"/></g>
<g transform="translate(2910,1164)"><use xlink:href="#t-0"/></g>
<g transform="translate(0,1261)"><use xlink:href="#r-0"/></g>
<g transform="translate(97,1261)"><use xlink:href="#rect-0"/></g>
<g transform="translate(194,1261)"><use xlink:href="#lb-0"/></g>
<g transform="translate(485,1261)"><use xlink:href="#rect-0"/></g>
<g transform="translate(776,1261)"><use xlink:href="#empty-0"/></g>
<g transform="translate(970,1261)"><use xlink:href="#b-0"/></g>
<g transform="translate(1358,1261)"><use xlink:href="#empty-0"/></g>
<g transform="translate(1455,1261)"><use xlink:href="#n_rb-0"/></g>
<g transform="translate(1552,1261)"><use xlink:href="#b-0"/></g>
<g transform="translate(1746,1261)"><use xlink:href="#r-0"/></g>
<g transform="translate(1843,1261)"><use xlink:href="#rect-0"/></g>
<g transform="translate(1940,1261)"><use xlink:href="#rect-0"/></g>
<g transform="translate(2037,1261)"><use xlink:href="#rect-0"/></g>
<g transform="translate(2134,1261)"><use xlink:href="#rect-0"/></g>
<g transform="translate(2425,1261)"><use xlink:href="#rb-0"/></g>
<g transform="translate(2522,1261)"><use xlink:href="#rect-0"/></g>
<g transform="translate(2619,1261)"><use xlink:href="#rect-0"/></g>
<g transform="translate(2716,1261)"><use xlink:href="#n_rb-0"/></g>
<g transform="translate(2813,1261)"><use xlink:href="#b-0"/></g>
<g transform="translate(3104,1261)"><use xlink:href="#empty-0"/></g>
<g transform="translate(3201,1261)"><use xlink:href="#n_rb-0"/></g>
<g transform="translate(3298,1261)"><use xlink:href="#b-0"/></g>
<g transform="translate(97,1358)"><use xlink:href="#rect-0"/></g>
<g transform="translate(194,1358)"><use xlink:href="#rect-0"/></g>
<g transform="translate(291,1358)"><use xlink:href="#rect-0"/></g>
<g transform="translate(388,1358)"><use xlink:href="#rect-0"/></g>
<g transform="translate(485,1358)"><use xlink:href="#rect-0"/></g>
<g transform="translate(582,1358)"><use xlink:href="#l-0"/></g>
<g transform="translate(970,1358)"><use xlink:href="#t-0"/></g>
<g transform="translate(1455,1358)"><use xlink:href="#r-0"/></g>
<g transform="translate(1552,1358)"><use xlink:href="#rect-0"/></g>
<g transform="translate(1649,1358)"><use xlink:href="#lb-0"/></g>
<g transform="translate(2037,1358)"><use xlink:href="#rt-0"/></g>
<g transform="translate(2134,1358)"><use xlink:href="#rect-0"/></g>
<g transform="translate(2425,1358)"><use xlink:href="#rt-0"/></g>
<g transform="translate(2522,1358)"><use xlink:href="#rect-0"/></g>
<g transform="translate(2619,1358)"><use xlink:href="#rect-0"/></g>
<g transform="translate(2716,1358)"><use xlink:href="#rect-0"/></g>
<g transform="translate(2813,1358)"><use xlink:href="#rect-0"/></g>
<g transform="translate(2910,1358)"><use xlink:href="#lb-0"/></g>
<g transform="translate(3104,1358)"><use xlink:href="#n_rb-0"/></g>
<g transform="translate(3201,1358)"><use xlink:href="#rb-0"/></g>
<g transform="translate(3298,1358)"><use xlink:href="#rect-0"/></g>
<g transform="translate(3395,1358)"><use xlink:href="#rect-0"/></g>
<g transform="translate(3492,1358)"><use xlink:href="#lb-0"/></g>
<g transform="translate(0,1455)"><use xlink:href="#n_rb-0"/></g>
<g transform="translate(97,1455)"><use xlink:href="#rect-0"/></g>
<g transform="translate(291,1455)"><use xlink:href="#rect-0"/></g>
<g transform="translate(582,1455)"><use xlink:href="#n_rb-0"/></g>
<g transform="translate(679,1455)"><use xlink:href="#b-0"/></g>
<g transform="translate(1261,1455)"><use xlink:href="#b-0"/></g>
<g transform="translate(1649,1455)"><use xlink:href="#t-0"/></g>
<g transform="translate(2134,1455)"><use xlink:href="#t-0"/></g>
<g transform="translate(2910,1455)"><use xlink:href="#rect-0"/></g>
<g transform="translate(3104,1455)"><use xlink:href="#r-0"/></g>
<g transform="translate(3201,1455)"><use xlink:href="#rect-0"/></g>
<g transform="translate(3298,1455)"><use xlink:href="#rect-0"/></g>
<g transform="translate(3492,1455)"><use xlink:href="#t-0"/></g>
<g transform="translate(0,1552)"><use xlink:href="#r-0"/></g>
<g transform="translate(97,1552)"><use xlink:href="#rect-0"/></g>
<g transform="translate(291,1552)"><use xlink:href="#rect-0"/></g>
<g transform="translate(582,1552)"><use xlink:href="#r-0"/></g>
<g transform="translate(679,1552)"><use xlink:href="#rect-0"/></g>
<g transform="translate(776,1552)"><use xlink:href="#rect-0"/></g>
<g transform="translate(873,1552)"><use xlink:href="#rect-0"/></g>
<g transform="translate(970,1552)"><use xlink:href="#rect-0"/></g>
<g transform="translate(1067,1552)"><use xlink:href="#lb-0"/></g>
<g transform="translate(1261,1552)"><use xlink:href="#rect-0"/></g>
<g transform="translate(1358,1552)"><use xlink:href="#rect-0"/></g>
<g transform="translate(1455,1552)"><use xlink:href="#l-0"/></g>
<g transform="translate(1746,1552)"><use xlink:href="#empty-0"/></g>
<g transform="translate(2231,1552)"><use xlink:href="#rb-0"/></g>
<g transform="translate(2328,1552)"><use xlink:href="#rect-0"/></g>
<g transform="translate(2425,1552)"><use xlink:href="#lb-0"/></g>
<g transform="translate(2619,1552)"><use xlink:href="#rb-0"/></g>
<g transform="translate(2716,1552)"><use xlink:href="#l-0"/></g>
<g transform="translate(2910,1552)"><use xlink:href="#t-0"/></g>
<g transform="translate(3298,1552)"><use xlink:href="#t-0"/></g>
<g transform="translate(97,1649)"><use xlink:href="#t-0"/></g>
<g transform="translate(194,1649)"><use xlink:href="#n_rb-0"/></g>
<g transform="translate(291,1649)"><use xlink:href="#rect-0"/></g>
<g transform="translate(388,1649)"><use xlink:href="#rect-0"/></g>
<g transform="translate(485,1649)"><use xlink:href="#lb-0"/></g>
<g transform="translate(582,1649)"><use xlink:href="#n_rb-0"/></g>
<g transform="translate(679,1649)"><use xlink:href="#rect-0"/></g>
<g transform="translate(1067,1649)"><use xlink:href="#t-0"/></g>
<g transform="translate(1261,1649)"><use xlink:href="#rt-0"/></g>
<g transform="translate(1358,1649)"><use xlink:href="#lt-0"/></g>
<g transform="translate(1552,1649)"><use xlink:href="#b-0"/></g>
<g transform="translate(1843,1649)"><use xlink:href="#r-0"/></g>
<g transform="translate(1940,1649)"><use xlink:href="#rect-0"/></g>
<g transform="translate(2037,1649)"><use xlink:href="#lb-0"/></g>
<g transform="translate(2231,1649)"><use xlink:href="#t-0"/></g>
<g transform="translate(2425,1649)"><use xlink:href="#t-0"/></g>
<g transform="translate(2619,1649)"><use xlink:href="#rect-0"/></g>
<g transform="translate(2716,1649)"><use xlink:href="#n_rb-0"/></g>
<g transform="translate(2813,1649)"><use xlink:href="#b-0"/></g>
<g transform="translate(3007,1649)"><use xlink:href="#empty-0"/></g>
<g transform="translate(3395,1649)"><use xlink:href="#empty-0"/></g>
<g transform="translate(0,1746)"><use xlink:href="#b-0"/></g>
<g transform="translate(194,1746)"><use xlink:href="#r-0"/></g>
<g transform="translate(291,1746)"><use xlink:href="#rect-0"/></g>
<g transform="translate(388,1746)"><use xlink:href="#rect-0"/></g>
<g transform="translate(485,1746)"><use xlink:href="#rect-0"/></g>
<g transform="translate(582,1746)"><use xlink:href="#rect-0"/></g>
<g transform="translate(679,1746)"><use xlink:href="#rect-0"/></g>
<g transform="translate(873,1746)"><use xlink:href="#rb-0"/></g>
<g transform="translate(970,1746)"><use xlink:href="#lb-0"/></g>
<g transform="translate(1164,1746)"><use xlink:href="#b-0"/></g>
<g transform="translate(1455,1746)"><use xlink:href="#n_rb-0"/></g>
<g transform="translate(1552,1746)"><use xlink:href="#rect-0"/></g>
<g transform="translate(1649,1746)"><use xlink:href="#n_rb-0"/></g>
<g transform="translate(1746,1746)"><use xlink:href="#b-0"/></g>
<g transform="translate(1843,1746)"><use xlink:href="#n_rb-0"/></g>
<g transform="translate(1940,1746)"><use xlink:href="#rect-0"/></g>
<g transform="translate(2037,1746)"><use xlink:href="#rect-0"/></g>
<g transform="translate(2619,1746)"><use xlink:href="#rect-0"/></g>
<g transform="translate(2716,1746)"><use xlink:href="#rect-0"/></g>
<g transform="translate(2813,1746)"><use xlink:href="#rect-0"/></g>
<g transform="translate(2910,1746)"><use xlink:href="#l-0"/></g>
<g transform="translate(3298,1746)"><use xlink:href="#empty-0"/></g>
<g transform="translate(3492,1746)"><use xlink:href="#b-0"/></g>
<g transform="translate(0,1843)"><use xlink:href="#rect-0"/></g>
<g transform="translate(97,1843)"><use xlink:href="#l-0"/></g>
<g transform="translate(291,1843)"><use xlink:href="#rect-0"/></g>
<g transform="translate(388,1843)"><use xlink:href="#rect-0"/></g>
<g transform="translate(679,1843)"><use xlink:href="#t-0"/></g>
<g transform="translate(873,1843)"><use xlink:href="#rt-0"/></g>
<g transform="translate(970,1843)"><use xlink:href="#rect-0"/></g>
<g transform="translate(1164,1843)"><use xlink:href="#t-0"/></g>
<g transform="translate(1455,1843)"><use xlink:href="#r-0"/></g>
<g transform="translate(1552,1843)"><use xlink:href="#rect-0"/></g>
<g transform="translate(1649,1843)"><use xlink:href="#rect-0"/></g>
<g transform="translate(1746,1843)"><use xlink:href="#rect-0"/></g>
<g transform="translate(1843,1843)"><use xlink:href="#rect-0"/></g>
<g transform="translate(1940,1843)"><use xlink:href="#rect-0"/></g>
<g transform="translate(2037,1843)"><use xlink:href="#lt-0"/></g>
<g transform="translate(2425,1843)"><use xlink:href="#empty-0"/></g>
<g transform="translate(2619,1843)"><use xlink:href="#rt-0"/></g>
<g transform="translate(2716,1843)"><use xlink:href="#rect-0"/></g>
<g transform="translate(3104,1843)"><use xlink:href="#n_rb-0"/></g>
<g transform="translate(3201,1843)"><use xlink:href="#b-0"/></g>
<g transform="translate(3492,1843)"><use xlink:href="#t-0"/></g>
<g transform="translate(0,1940)"><use xlink:href="#t-0"/></g>
<g transform="translate(194,1940)"><use xlink:href="#rb-0"/></g>
<g transform="translate(291,1940)"><use xlink:href="#rect-0"/></g>
<g transform="translate(388,1940)"><use xlink:href="#rect-0"/></g>
<g transform="translate(485,1940)"><use xlink:href="#rect-0"/></g>
<g transform="translate(582,1940)"><use xlink:href="#l-0"/></g>
<g transform="translate(970,1940)"><use xlink:href="#rect-0"/></g>
<g transform="translate(1067,1940)"><use xlink:href="#lb-0"/></g>
<g transform="translate(1261,1940)"><use xlink:href="#empty-0"/></g>
<g transform="translate(1649,1940)"><use xlink:href="#t-0"/></g>
<g transform="translate(1843,1940)"><use xlink:href="#t-0"/></g>
<g transform="translate(2134,1940)"><use xlink:href="#empty-0"/></g>
<g transform="translate(2328,1940)"><use xlink:href="#empty-0"/></g>
<g transform="translate(2522,1940)"><use xlink:href="#empty-0"/></g>
<g transform="translate(2716,1940)"><use xlink:href="#rect-0"/></g>
<g transform="translate(2813,1940)"><use xlink:href="#rect-0"/></g>
<g transform="translate(2910,1940)"><use xlink:href="#l-0"/></g>
<g transform="translate(3007,1940)"><use xlink:href="#n_rb-0"/></g>
<g transform="translate(3104,1940)"><use xlink:href="#rb-0"/></g>
<g transform="translate(3201,1940)"><use xlink:href="#rect-0"/></g>
<g transform="translate(194,2037)"><use xlink:href="#t-0"/></g>
<g transform="translate(388,2037)"><use xlink:href="#rect-0"/></g>
<g transform="translate(485,2037)"><use xlink:href="#rect-0"/></g>
<g transform="translate(679,2037)"><use xlink:href="#empty-0"/></g>
<g transform="translate(873,2037)"><use xlink:href="#n_rb-0"/></g>
<g transform="translate(970,2037)"><use xlink:href="#rect-0"/></g>
<g transform="translate(1067,2037)"><use xlink:href="#rect-0"/></g>
<g transform="translate(1164,2037)"><use xlink:href="#lb-0"/></g>
<g transform="translate(1358,2037)"><use xlink:href="#empty-0"/></g>
<g transform="translate(1455,2037)"><use xlink:href="#n_rb-0"/></g>
<g transform="translate(1552,2037)"><use xlink:href="#b-0"/></g>
<g transform="translate(1843,2037)"><use xlink:href="#n_rb-0"/></g>
<g transform="translate(1940,2037)"><use xlink:href="#rb-0"/></g>
<g transform="translate(2037,2037)"><use xlink:href="#l-0"/></g>
<g transform="translate(2522,2037)"><use xlink:href="#n_rb-0"/></g>
<g transform="translate(2619,2037)"><use xlink:href="#rb-0"/></g>
<g transform="translate(2716,2037)"><use xlink:href="#lt-0"/></g>
<g transform="translate(3007,2037)"><use xlink:href="#r-0"/></g>
<g transform="translate(3104,2037)"><use xlink:href="#rect-0"/></g>
<g transform="translate(3201,2037)"><use xlink:href="#lt-0"/></g>
<g transform="translate(0,2134)"><use xlink:href="#r-0"/></g>
<g transform="translate(97,2134)"><use xlink:href="#lb-0"/></g>
<g transform="translate(291,2134)"><use xlink:href="#n_rb-0"/></g>
<g transform="translate(388,2134)"><use xlink:href="#rect-0"/></g>
<g transform="translate(485,2134)"><use xlink:href="#rect-0"/></g>
<g transform="translate(582,2134)"><use xlink:href="#l-0"/></g>
<g transform="translate(873,2134)"><use xlink:href="#r-0"/></g>
<g transform="translate(970,2134)"><use xlink:href="#rect-0"/></g>
<g transform="translate(1164,2134)"><use xlink:href="#rt-0"/></g>
<g transform="translate(1261,2134)"><use xlink:href="#l-0"/></g>
<g transform="translate(1455,2134)"><use xlink:href="#r-0"/></g>
<g transform="translate(1552,2134)"><use xlink:href="#rect-0"/></g>
<g transform="translate(1649,2134)"><use xlink:href="#lb-0"/></g>
<g transform="translate(1843,2134)"><use xlink:href="#r-0"/></g>
<g transform="translate(1940,2134)"><use xlink:href="#lt-0"/></g>
<g transform="translate(2037,2134)"><use xlink:href="#n_rb-0"/></g>
<g transform="translate(2134,2134)"><use xlink:href="#b-0"/></g>
<g transform="translate(2522,2134)"><use xlink:href="#rb-0"/></g>
<g transform="translate(2619,2134)"><use xlink:href="#rect-0"/></g>
<g transform="translate(2910,2134)"><use xlink:href="#b-0"/></g>
<g transform="translate(3104,2134)"><use xlink:href="#t-0"/></g>
<g transform="translate(3201,2134)"><use xlink:href="#n_rb-0"/></g>
<g transform="translate(3298,2134)"><use xlink:href="#b-0"/></g>
<g transform="translate(3395,2134)"><use xlink:href="#n_rb-0"/></g>
<g transform="translate(3492,2134)"><use xlink:href="#b-0"/></g>
<g transform="translate(97,2231)"><use xlink:href="#rect-0"/></g>
<g transform="translate(291,2231)"><use xlink:href="#r-0"/></g>
<g transform="translate(388,2231)"><use xlink:href="#rect-0"/></g>
<g transform="translate(776,2231)"><use xlink:href="#empty-0"/></g>
<g transform="translate(970,2231)"><use xlink:href="#rect-0"/></g>
<g transform="translate(1552,2231)"><use xlink:href="#rt-0"/></g>
<g transform="translate(1649,2231)"><use xlink:href="#rect-0"/></g>
<g transform="translate(1940,2231)"><use xlink:href="#n_rb-0"/></g>
<g transform="translate(2037,2231)"><use xlink:href="#rb-0"/></g>
<g transform="translate(2134,2231)"><use xlink:href="#rect-0"/></g>
<g transform="translate(2328,2231)"><use xlink:href="#empty-0"/></g>
<g transform="translate(2425,2231)"><use xlink:href="#n_rb-0"/></g>
<g transform="translate(2522,2231)"><use xlink:href="#rect-0"/></g>
<g transform="translate(2619,2231)"><use xlink:href="#rect-0"/></g>
<g transform="translate(2716,2231)"><use xlink:href="#lb-0"/></g>
<g transform="translate(2910,2231)"><use xlink:href="#rect-0"/></g>
<g transform="translate(3007,2231)"><use xlink:href="#l-0"/></g>
<g transform="translate(3201,2231)"><use xlink:href="#r-0"/></g>
<g transform="translate(3298,2231)"><use xlink:href="#rect-0"/></g>
<g transform="translate(3395,2231)"><use xlink:href="#rect-0"/></g>
<g transform="translate(3492,2231)"><use xlink:href="#rect-0"/></g>
<g transform="translate(97,2328)"><use xlink:href="#t-0"/></g>
<g transform="translate(388,2328)"><use xlink:href="#rect-0"/></g>
<g transform="translate(485,2328)"><use xlink:href="#rect-0"/></g>
<g transform="translate(582,2328)"><use xlink:href="#rect-0"/></g>
<g transform="translate(679,2328)"><use xlink:href="#l-0"/></g>
<g transform="translate(873,2328)"><use xlink:href="#r-0"/></g>
<g transform="translate(970,2328)"><use xlink:href="#lt-0"/></g>
<g transform="translate(1164,2328)"><use xlink:href="#b-0"/></g>
<g transform="translate(1455,2328)"><use xlink:href="#empty-0"/></g>
<g transform="translate(1649,2328)"><use xlink:href="#rect-0"/></g>
<g transform="translate(1843,2328)"><use xlink:href="#r-0"/></g>
<g transform="translate(1940,2328)"><use xlink:href="#rect-0"/></g>
<g transform="translate(2037,2328)"><use xlink:href="#rect-0"/></g>
<g transform="translate(2134,2328)"><use xlink:href="#rect-0"/></g>
<g transform="translate(2231,2328)"><use xlink:href="#l-0"/></g>
<g transform="translate(2425,2328)"><use xlink:href="#r-0"/></g>
<g transform="translate(2522,2328)"><use xlink:href="#lt-0"/></g>
<g transform="translate(2716,2328)"><use xlink:href="#rect-0"/></g>
<g transform="translate(2813,2328)"><use xlink:href="#n_rb-0"/></g>
<g transform="translate(2910,2328)"><use xlink:href="#rect-0"/></g>
<g transform="translate(3104,2328)"><use xlink:href="#b-0"/></g>
<g transform="translate(3395,2328)"><use xlink:href="#rt-0"/></g>
<g transform="translate(3492,2328)"><use xlink:href="#lt-0"/></g>
<g transform="translate(0,2425)"><use xlink:href="#b-0"/></g>
<g transform="translate(291,2425)"><use xlink:href="#rb-0"/></g>
<g transform="translate(388,2425)"><use xlink:href="#rect-0"/></g>
<g transform="translate(485,2425)"><use xlink:href="#rect-0"/></g>
<g transform="translate(776,2425)"><use xlink:href="#b-0"/></g>
<g transform="translate(1164,2425)"><use xlink:href="#rt-0"/></g>
<g transform="translate(1261,2425)"><use xlink:href="#rect-0"/></g>
<g transform="translate(1358,2425)"><use xlink:href="#l-0"/></g>
<g transform="translate(1552,2425)"><use xlink:href="#r-0"/></g>
<g transform="translate(1649,2425)"><use xlink:href="#lt-0"/></g>
<g transform="translate(1940,2425)"><use xlink:href="#rt-0"/></g>
<g transform="translate(2037,2425)"><use xlink:href="#rect-0"/></g>
<g transform="translate(2134,2425)"><use xlink:href="#lt-0"/></g>
<g transform="translate(2328,2425)"><use xlink:href="#empty-0"/></g>
<g transform="translate(2619,2425)"><use xlink:href="#n_rb-0"/></g>
<g transform="translate(2716,2425)"><use xlink:href="#rect-0"/></g>
<g transform="translate(2813,2425)"><use xlink:href="#rect-0"/></g>
<g transform="translate(2910,2425)"><use xlink:href="#rect-0"/></g>
<g transform="translate(3007,2425)"><use xlink:href="#n_rb-0"/></g>
<g transform="translate(3104,2425)"><use xlink:href="#rect-0"/></g>
<g transform="translate(3201,2425)"><use xlink:href="#l-0"/></g>
<g transform="translate(0,2522)"><use xlink:href="#rect-0"/></g>
<g transform="translate(97,2522)"><use xlink:href="#l-0"/></g>
<g transform="translate(291,2522)"><use xlink:href="#t-0"/></g>
<g transform="translate(485,2522)"><use xlink:href="#rt-0"/></g>
<g transform="translate(582,2522)"><use xlink:href="#l-0"/></g>
<g transform="translate(776,2522)"><use xlink:href="#rt-0"/></g>
<g transform="translate(873,2522)"><use xlink:href="#lb-0"/></g>
<g transform="translate(1067,2522)"><use xlink:href="#b-0"/></g>
<g transform="translate(1746,2522)"><use xlink:href="#r-0"/></g>
<g transform="translate(1843,2522)"><use xlink:href="#l-0"/></g>
<g transform="translate(2037,2522)"><use xlink:href="#t-0"/></g>
<g transform="translate(2425,2522)"><use xlink:href="#empty-0"/></g>
<g transform="translate(2619,2522)"><use xlink:href="#r-0"/></g>
<g transform="translate(2716,2522)"><use xlink:href="#lt-0"/></g>
<g transform="translate(2910,2522)"><use xlink:href="#rt-0"/></g>
<g transform="translate(3007,2522)"><use xlink:href="#rect-0"/></g>
<g transform="translate(3104,2522)"><use xlink:href="#lt-0"/></g>
<g transform="translate(3492,2522)"><use xlink:href="#b-0"/></g>
<g transform="translate(0,2619)"><use xlink:href="#rect-0"/></g>
<g transform="translate(194,2619)"><use xlink:href="#empty-0"/></g>
<g transform="translate(873,2619)"><use xlink:href="#rect-0"/></g>
<g transform="translate(970,2619)"><use xlink:href="#n_rb-0"/></g>
<g transform="translate(1067,2619)"><use xlink:href="#rect-0"/></g>
<g transform="translate(1455,2619)"><use xlink:href="#r-0"/></g>
<g transform="translate(1552,2619)"><use xlink:href="#rect-0"/></g>
<g transform="translate(1649,2619)"><use xlink:href="#l-0"/></g>
<g transform="translate(1940,2619)"><use xlink:href="#empty-0"/></g>
<g transform="translate(2328,2619)"><use xlink:href="#empty-0"/></g>
<g transform="translate(2522,2619)"><use xlink:href="#empty-0"/></g>
<g transform="translate(2716,2619)"><use xlink:href="#n_rb-0"/></g>
<g transform="translate(2813,2619)"><use xlink:href="#b-0"/></g>
<g transform="translate(3104,2619)"><use xlink:href="#n_rb-0"/></g>
<g transform="translate(3201,2619)"><use xlink:href="#rb-0"/></g>
<g transform="translate(3298,2619)"><use xlink:href="#lb-0"/></g>
<g transform="translate(3492,2619)"><use xlink:href="#t-0"/></g>
<g transform="translate(0,2716)"><use xlink:href="#t-0"/></g>
<g transform="translate(388,2716)"><use xlink:href="#r-0"/></g>
<g transform="translate(485,2716)"><use xlink:href="#rect-0"/></g>
<g transform="translate(582,2716)"><use xlink:href="#rect-0"/></g>
<g transform="translate(679,2716)"><use xlink:href="#rect-0"/></g>
<g transform="translate(776,2716)"><use xlink:href="#rect-0"/></g>
<g transform="translate(873,2716)"><use xlink:href="#rect-0"/></g>
<g transform="translate(970,2716)"><use xlink:href="#rect-0"/></g>
<g transform="translate(1067,2716)"><use xlink:href="#rect-0"/></g>
<g transform="translate(1164,2716)"><use xlink:href="#lb-0"/></g>
<g transform="translate(1261,2716)"><use xlink:href="#n_rb-0"/></g>
<g transform="translate(1358,2716)"><use xlink:href="#b-0"/></g>
<g transform="translate(1843,2716)"><use xlink:href="#empty-0"/></g>
<g transform="translate(2037,2716)"><use xlink:href="#empty-0"/></g>
<g transform="translate(2231,2716)"><use xlink:href="#empty-0"/></g>
<g transform="translate(2425,2716)"><use xlink:href="#empty-0"/></g>
<g transform="translate(2619,2716)"><use xlink:href="#r-0"/></g>
<g transform="translate(2716,2716)"><use xlink:href="#rect-0"/></g>
<g transform="translate(2813,2716)"><use xlink:href="#rect-0"/></g>
<g transform="translate(2910,2716)"><use xlink:href="#rect-0"/></g>
<g transform="translate(3007,2716)"><use xlink:href="#rect-0"/></g>
<g transform="translate(3104,2716)"><use xlink:href="#rect-0"/></g>
<g transform="translate(3201,2716)"><use xlink:href="#rect-0"/></g>
<g transform="translate(3298,2716)"><use xlink:href="#rect-0"/></g>
<g transform="translate(3395,2716)"><use xlink:href="#lb-0"/></g>
<g transform="translate(776,2813)"><use xlink:href="#rect-0"/></g>
<g transform="translate(970,2813)"><use xlink:href="#t-0"/></g>
<g transform="translate(1164,2813)"><use xlink:href="#rt-0"/></g>
<g transform="translate(1261,2813)"><use xlink:href="#rect-0"/></g>
<g transform="translate(1358,2813)"><use xlink:href="#rect-0"/></g>
<g transform="translate(1649,2813)"><use xlink:href="#r-0"/></g>
<g transform="translate(1746,2813)"><use xlink:href="#l-0"/></g>
<g transform="translate(1940,2813)"><use xlink:href="#empty-0"/></g>
<g transform="translate(2231,2813)"><use xlink:href="#n_rb-0"/></g>
<g transform="translate(2328,2813)"><use xlink:href="#b-0"/></g>
<g transform="translate(2716,2813)"><use xlink:href="#rect-0"/></g>
<g transform="translate(3104,2813)"><use xlink:href="#rect-0"/></g>
<g transform="translate(3201,2813)"><use xlink:href="#rect-0"/></g>
<g transform="translate(3298,2813)"><use xlink:href="#rect-0"/></g>
<g transform="translate(3395,2813)"><use xlink:href="#lt-0"/></g>
<g transform="translate(776,2910)"><use xlink:href="#rt-0"/></g>
<g transform="translate(873,2910)"><use xlink:href="#l-0"/></g>
<g transform="translate(1358,2910)"><use xlink:href="#rect-0"/></g>
<g transform="translate(2134,2910)"><use xlink:href="#r-0"/></g>
<g transform="translate(2231,2910)"><use xlink:href="#rect-0"/></g>
<g transform="translate(2328,2910)"><use xlink:href="#rect-0"/></g>
<g transform="translate(2522,2910)"><use xlink:href="#empty-0"/></g>
<g transform="translate(2619,2910)"><use xlink:href="#n_rb-0"/></g>
<g transform="translate(2716,2910)"><use xlink:href="#rect-0"/></g>
<g transform="translate(2910,2910)"><use xlink:href="#empty-0"/></g>
<g transform="translate(3104,2910)"><use xlink:href="#rect-0"/></g>
<g transform="translate(3201,2910)"><use xlink:href="#rect-0"/></g>
<g transform="translate(3298,2910)"><use xlink:href="#lt-0"/></g>
<g transform="translate(3395,2910)"><use xlink:href="#n_rb-0"/></g>
<g transform="translate(3492,2910)"><use xlink:href="#b-0"/></g>
<g transform="translate(1358,3007)"><use xlink:href="#t-0"/></g>
<g transform="translate(1552,3007)"><use xlink:href="#r-0"/></g>
<g transform="translate(1649,3007)"><use xlink:href="#lb-0"/></g>
<g transform="translate(1843,3007)"><use xlink:href="#empty-0"/></g>
<g transform="translate(2231,3007)"><use xlink:href="#rt-0"/></g>
<g transform="translate(2328,3007)"><use xlink:href="#rect-0"/></g>
<g transform="translate(2425,3007)"><use xlink:href="#l-0"/></g>
<g transform="translate(2522,3007)"><use xlink:href="#n_rb-0"/></g>
<g transform="translate(2619,3007)"><use xlink:href="#rb-0"/></g>
<g transform="translate(2716,3007)"><use xlink:href="#rect-0"/></g>
<g transform="translate(3007,3007)"><use xlink:href="#n_rb-0"/></g>
<g transform="translate(3104,3007)"><use xlink:href="#rect-0"/></g>
<g transform="translate(3201,3007)"><use xlink:href="#lt-0"/></g>
<g transform="translate(3395,3007)"><use xlink:href="#rb-0"/></g>
<g transform="translate(3492,3007)"><use xlink:href="#rect-0"/></g>
<g transform="translate(776,3104)"><use xlink:href="#b-0"/></g>
<g transform="translate(970,3104)"><use xlink:href="#r-0"/></g>
<g transform="translate(1067,3104)"><use xlink:href="#rect-0"/></g>
<g transform="translate(1164,3104)"><use xlink:href="#rect-0"/></g>
<g transform="translate(1261,3104)"><use xlink:href="#l-0"/></g>
<g transform="translate(1649,3104)"><use xlink:href="#t-0"/></g>
<g transform="translate(1940,3104)"><use xlink:href="#empty-0"/></g>
<g transform="translate(2037,3104)"><use xlink:href="#n_rb-0"/></g>
<g transform="translate(2134,3104)"><use xlink:href="#b-0"/></g>
<g transform="translate(2328,3104)"><use xlink:href="#t-0"/></g>
<g transform="translate(2522,3104)"><use xlink:href="#rb-0"/></g>
<g transform="translate(2619,3104)"><use xlink:href="#rect-0"/></g>
<g transform="translate(2716,3104)"><use xlink:href="#rect-0"/></g>
<g transform="translate(2813,3104)"><use xlink:href="#rect-0"/></g>
<g transform="translate(2910,3104)"><use xlink:href="#rect-0"/></g>
<g transform="translate(3007,3104)"><use xlink:href="#rect-0"/></g>
<g transform="translate(3104,3104)"><use xlink:href="#lt-0"/></g>
<g transform="translate(3395,3104)"><use xlink:href="#rt-0"/></g>
<g transform="translate(3492,3104)"><use xlink:href="#lt-0"/></g>
<g transform="translate(776,3201)"><use xlink:href="#t-0"/></g>
<g transform="translate(1067,3201)"><use xlink:href="#rect-0"/></g>
<g transform="translate(1164,3201)"><use xlink:href="#lt-0"/></g>
<g transform="translate(1455,3201)"><use xlink:href="#rb-0"/></g>
<g transform="translate(1552,3201)"><use xlink:href="#l-0"/></g>
<g transform="translate(1843,3201)"><use xlink:href="#b-0"/></g>
<g transform="translate(2037,3201)"><use xlink:href="#r-0"/></g>
<g transform="translate(2134,3201)"><use xlink:href="#rect-0"/></g>
<g transform="translate(2522,3201)"><use xlink:href="#rect-0"/></g>
<g transform="translate(2619,3201)"><use xlink:href="#rect-0"/></g>
<g transform="translate(2716,3201)"><use xlink:href="#rect-0"/></g>
<g transform="translate(2910,3201)"><use xlink:href="#rt-0"/></g>
<g transform="translate(3007,3201)"><use xlink:href="#rect-0"/></g>
<g transform="translate(3298,3201)"><use xlink:href="#b-0"/></g>
<g transform="translate(873,3298)"><use xlink:href="#empty-0"/></g>
<g transform="translate(1067,3298)"><use xlink:href="#t-0"/></g>
<g transform="translate(1455,3298)"><use xlink:href="#rect-0"/></g>
<g transform="translate(1746,3298)"><use xlink:href="#n_rb-0"/></g>
<g transform="translate(1843,3298)"><use xlink:href="#rect-0"/></g>
<g transform="translate(2134,3298)"><use xlink:href="#t-0"/></g>
<g transform="translate(2328,3298)"><use xlink:href="#empty-0"/></g>
<g transform="translate(2522,3298)"><use xlink:href="#rt-0"/></g>
<g transform="translate(2619,3298)"><use xlink:href="#rect-0"/></g>
<g transform="translate(2716,3298)"><use xlink:href="#lt-0"/></g>
<g transform="translate(3007,3298)"><use xlink:href="#rect-0"/></g>
<g transform="translate(3104,3298)"><use xlink:href="#l-0"/></g>
<g transform="translate(3201,3298)"><use xlink:href="#n_rb-0"/></g>
<g transform="translate(3298,3298)"><use xlink:href="#rect-0"/></g>
<g transform="translate(3395,3298)"><use xlink:href="#rect-0"/></g>
<g transform="translate(3492,3298)"><use xlink:href="#lb-0"/></g>
<g transform="translate(970,3395)"><use xlink:href="#empty-0"/></g>
<g transform="translate(1067,3395)"><use xlink:href="#n_rb-0"/></g>
<g transform="translate(1164,3395)"><use xlink:href="#rb-0"/></g>
<g transform="translate(1261,3395)"><use xlink:href="#lb-0"/></g>
<g transform="translate(1455,3395)"><use xlink:href="#rt-0"/></g>
<g transform="translate(1552,3395)"><use xlink:href="#l-0"/></g>
<g transform="translate(1746,3395)"><use xlink:href="#rb-0"/></g>
<g transform="translate(1843,3395)"><use xlink:href="#rect-0"/></g>
<g transform="translate(1940,3395)"><use xlink:href="#lb-0"/></g>
<g transform="translate(2910,3395)"><use xlink:href="#rb-0"/></g>
<g transform="translate(3007,3395)"><use xlink:href="#rect-0"/></g>
<g transform="translate(3201,3395)"><use xlink:href="#rb-0"/></g>
<g transform="translate(3298,3395)"><use xlink:href="#rect-0"/></g>
<g transform="translate(3395,3395)"><use xlink:href="#rect-0"/></g>
<g transform="translate(3492,3395)"><use xlink:href="#rect-0"/></g>
<g transform="translate(1067,3492)"><use xlink:href="#r-0"/></g>
<g transform="translate(1164,3492)"><use xlink:href="#rect-0"/></g>
<g transform="translate(1261,3492)"><use xlink:href="#lt-0"/></g>
<g transform="translate(1746,3492)"><use xlink:href="#rt-0"/></g>
<g transform="translate(1843,3492)"><use xlink:href="#rect-0"/></g>
<g transform="translate(1940,3492)"><use xlink:href="#rect-0"/></g>
<g transform="translate(2037,3492)"><use xlink:href="#l-0"/></g>
<g transform="translate(2328,3492)"><use xlink:href="#r-0"/></g>
<g transform="translate(2425,3492)"><use xlink:href="#l-0"/></g>
<g transform="translate(2619,3492)"><use xlink:href="#r-0"/></g>
<g transform="translate(2716,3492)"><use xlink:href="#l-0"/></g>
<g transform="translate(2910,3492)"><use xlink:href="#rt-0"/></g>
<g transform="translate(3007,3492)"><use xlink:href="#lt-0"/></g>
<g transform="translate(3201,3492)"><use xlink:href="#t-0"/></g>
<g transform="translate(3492,3492)"><use xlink:href="#t-0"/></g>
<use fill-rule="evenodd" transform="translate(0,0)" xlink:href="#point-0"/>
<use fill-rule="evenodd" transform="translate(2880,0)" xlink:href="#point-0"/>
<use fill-rule="evenodd" transform="translate(0,2880)" xlink:href="#point-0"/>
    </g>
  </svg>